<svg width="200" height="195" viewBox="0 0 200 195" fill="none" xmlns="http://www.w3.org/2000/svg">
<path d="M126.968 43.8547H73.0769C71.8488 43.8562 70.6715 44.3441 69.8031 45.2115C68.9347 46.0789 68.4462 47.2549 68.4447 48.4816V168.118L67.8271 168.306L54.6067 172.35C53.9801 172.54 53.3034 172.475 52.725 172.168C52.1466 171.861 51.7138 171.337 51.5217 170.712L12.197 42.408C12.0057 41.7822 12.0709 41.106 12.3784 40.5282C12.6859 39.9504 13.2105 39.5182 13.8369 39.3265L34.2095 33.0956L93.2704 15.0384L113.643 8.80751C113.953 8.7122 114.279 8.6789 114.602 8.7095C114.925 8.74011 115.238 8.83403 115.525 8.98587C115.811 9.13772 116.065 9.34452 116.272 9.59444C116.478 9.84436 116.633 10.1325 116.728 10.4423L126.78 43.2378L126.968 43.8547Z" fill="#CAACCB"/>
<path d="M138.728 43.2384L126.613 3.71237C126.412 3.05379 126.082 2.44134 125.644 1.91001C125.205 1.37868 124.666 0.93889 124.057 0.615766C123.448 0.292642 122.782 0.0925146 122.095 0.0268285C121.409 -0.0388575 120.716 0.0311845 120.057 0.232945L91.4146 8.99011L32.3568 27.0504L3.71417 35.8107C2.38359 36.2188 1.26947 37.1375 0.616367 38.3653C-0.0367349 39.593 -0.175463 41.0295 0.230639 42.3593L41.6366 177.443C41.9665 178.516 42.6322 179.456 43.5359 180.124C44.4396 180.792 45.5339 181.153 46.6581 181.154C47.1783 181.154 47.6957 181.076 48.1928 180.922L67.8273 174.92L68.4449 174.728V174.084L67.8273 174.272L48.0106 180.333C46.8361 180.691 45.5676 180.568 44.4833 179.993C43.3989 179.418 42.5873 178.436 42.2265 177.264L0.823692 42.1773C0.644915 41.5964 0.582607 40.986 0.640332 40.3811C0.698058 39.7762 0.874679 39.1885 1.16009 38.6519C1.44551 38.1152 1.8341 37.64 2.30363 37.2536C2.77315 36.8672 3.31437 36.577 3.89631 36.3998L32.5389 27.6396L91.5969 9.58236L120.239 0.822109C120.681 0.687558 121.14 0.618954 121.601 0.618524C122.592 0.620745 123.555 0.939679 124.351 1.52861C125.147 2.11754 125.733 2.94552 126.024 3.89128L138.083 43.2384L138.274 43.8553H138.917L138.728 43.2384Z" fill="#6C63FF"/>
<path d="M37.8858 39.4277C37.2905 39.4273 36.7111 39.2363 36.2325 38.8829C35.7539 38.5294 35.4013 38.0321 35.2264 37.4638L31.2488 24.4864C31.1419 24.1378 31.1048 23.7716 31.1396 23.4087C31.1745 23.0458 31.2805 22.6932 31.4518 22.3713C31.623 22.0493 31.8561 21.7642 32.1376 21.5322C32.4192 21.3002 32.7438 21.1259 33.0928 21.0192L87.4254 4.40444C88.1303 4.18961 88.8916 4.26288 89.5424 4.60817C90.1933 4.95346 90.6803 5.54255 90.8968 6.24616L94.8744 19.2237C95.0894 19.9278 95.0159 20.6882 94.6703 21.3382C94.3246 21.9882 93.7349 22.4748 93.0306 22.6911L38.6977 39.3058C38.4346 39.3865 38.161 39.4276 37.8858 39.4277Z" fill="#6C63FF"/>
<path d="M58.7223 13.8667C62.1334 13.8667 64.8986 11.1047 64.8986 7.69751C64.8986 4.29036 62.1334 1.52832 58.7223 1.52832C55.3112 1.52832 52.546 4.29036 52.546 7.69751C52.546 11.1047 55.3112 13.8667 58.7223 13.8667Z" fill="#6C63FF"/>
<path d="M58.7223 11.6041C60.8823 11.6041 62.6333 9.85505 62.6333 7.69754C62.6333 5.54003 60.8823 3.79102 58.7223 3.79102C56.5623 3.79102 54.8113 5.54003 54.8113 7.69754C54.8113 9.85505 56.5623 11.6041 58.7223 11.6041Z" fill="white"/>
<path d="M186.103 179.577H81.7238C81.0279 179.576 80.3607 179.3 79.8686 178.808C79.3765 178.317 79.0997 177.65 79.0989 176.955V52.0289C79.0997 51.3338 79.3765 50.6673 79.8686 50.1758C80.3607 49.6842 81.0279 49.4078 81.7238 49.407H186.103C186.799 49.4078 187.466 49.6843 187.959 50.1758C188.451 50.6673 188.727 51.3338 188.728 52.0289V176.955C188.727 177.65 188.451 178.316 187.959 178.808C187.466 179.3 186.799 179.576 186.103 179.577Z" fill="#E5CBE6"/>
<path d="M138.083 43.238H73.0769C71.6851 43.24 70.351 43.7931 69.3669 44.7761C68.3827 45.7591 67.829 47.0917 67.827 48.4818V174.272L68.4447 174.083V48.4818C68.4462 47.2552 68.9347 46.0792 69.8031 45.2118C70.6714 44.3444 71.8488 43.8564 73.0769 43.855H138.274L138.083 43.238ZM194.75 43.238H73.0769C71.6851 43.24 70.351 43.7931 69.3669 44.7761C68.3827 45.7591 67.829 47.0917 67.827 48.4818V189.756C67.829 191.146 68.3827 192.479 69.3669 193.462C70.351 194.445 71.6851 194.998 73.0769 195H194.75C196.142 194.998 197.476 194.445 198.46 193.462C199.444 192.479 199.998 191.146 200 189.756V48.4818C199.998 47.0917 199.444 45.7591 198.46 44.7761C197.476 43.7931 196.142 43.24 194.75 43.238ZM199.382 189.756C199.381 190.983 198.892 192.159 198.024 193.026C197.156 193.894 195.978 194.382 194.75 194.383H73.0769C71.8488 194.382 70.6714 193.894 69.8031 193.026C68.9347 192.159 68.4462 190.983 68.4447 189.756V48.4818C68.4462 47.2552 68.9347 46.0792 69.8031 45.2118C70.6714 44.3444 71.8488 43.8564 73.0769 43.855H194.75C195.978 43.8564 197.156 44.3444 198.024 45.2118C198.892 46.0792 199.381 47.2552 199.382 48.4818V189.756Z" fill="#6C63FF"/>
<path d="M162.325 56.8103H105.503C104.766 56.8095 104.059 56.5167 103.538 55.9963C103.017 55.4758 102.724 54.7702 102.723 54.0341V40.4619C102.724 39.7259 103.017 39.0203 103.538 38.4998C104.059 37.9794 104.766 37.6866 105.503 37.6858H162.325C163.061 37.6866 163.768 37.9794 164.289 38.4998C164.81 39.0203 165.103 39.7259 165.104 40.4619V54.0341C165.103 54.7702 164.81 55.4758 164.289 55.9963C163.768 56.5167 163.061 56.8095 162.325 56.8103Z" fill="#6C63FF"/>
<path d="M133.914 38.6111C137.325 38.6111 140.09 35.849 140.09 32.4419C140.09 29.0347 137.325 26.2727 133.914 26.2727C130.502 26.2727 127.737 29.0347 127.737 32.4419C127.737 35.849 130.502 38.6111 133.914 38.6111Z" fill="#6C63FF"/>
<path d="M133.914 36.1996C135.991 36.1996 137.675 34.5172 137.675 32.4419C137.675 30.3667 135.991 28.6843 133.914 28.6843C131.836 28.6843 130.152 30.3667 130.152 32.4419C130.152 34.5172 131.836 36.1996 133.914 36.1996Z" fill="white"/>
<line x1="96.5" y1="80.5" x2="158.5" y2="80.5" stroke="black" stroke-width="3" stroke-linecap="round"/>
<line x1="96.5" y1="89.5" x2="176.5" y2="89.5" stroke="black" stroke-width="3" stroke-linecap="round"/>
<line x1="96.5" y1="99.5" x2="176.5" y2="99.5" stroke="black" stroke-width="3" stroke-linecap="round"/>
<line x1="96.5" y1="117.5" x2="176.5" y2="117.5" stroke="black" stroke-width="3" stroke-linecap="round"/>
<line x1="96.5" y1="125.5" x2="176.5" y2="125.5" stroke="black" stroke-width="3" stroke-linecap="round"/>
<line x1="96.5" y1="134.5" x2="176.5" y2="134.5" stroke="black" stroke-width="3" stroke-linecap="round"/>
<line x1="96.5" y1="145.5" x2="158.5" y2="145.5" stroke="black" stroke-width="3" stroke-linecap="round"/>
<line x1="96.5" y1="155.5" x2="134.5" y2="155.5" stroke="black" stroke-width="3" stroke-linecap="round"/>
</svg>
