<svg width="265" height="187" viewBox="0 0 265 187" fill="none" xmlns="http://www.w3.org/2000/svg">
<g clip-path="url(#clip0)">
<path opacity="0.2" d="M79.925 12.4995C76.6643 12.9258 73.1211 13.6436 70.9661 16.5014C68.4184 19.8799 68.76 25.0152 69.9142 29.2924C71.0684 33.5696 72.8924 37.7388 72.8736 42.2184C72.8225 49.3398 67.9745 55.3845 62.4565 58.5715C56.9386 61.7584 50.7104 62.7866 44.754 64.6459C39.1986 66.3884 33.8859 68.8302 28.9428 71.913C24.7485 74.5225 20.53 77.9334 18.8513 83.0822C16.099 91.5259 21.1623 100.488 26.1636 107.42C41.4987 128.677 61.0468 149.072 84.9425 151.136C102.793 152.667 120.662 143.61 138.319 146.932C146.431 148.454 153.988 152.507 161.602 156.077C169.215 159.648 177.224 162.824 185.433 162.419C193.641 162.014 202.153 157.346 205.71 148.794C207.811 143.74 208.024 137.879 209.966 132.741C215.917 116.978 234.464 114.42 245.226 102.558C250.876 96.3266 254.104 87.7696 256.794 79.2908C261.139 65.4959 264.397 50.9562 263.671 36.2897C263.353 29.905 262.164 23.2747 258.632 18.3472C256.063 14.7608 252.476 12.3807 248.974 10.0789C240.999 4.83834 232.439 -0.572217 223.278 0.0511435C217.999 0.410048 213.006 2.76587 207.97 4.61166C198.376 8.11975 188.368 9.8576 178.411 11.5712C161.959 14.4046 145.271 17.2381 128.596 15.8241C121.233 15.1953 114.278 12.6857 107.033 11.6575C98.2221 10.4081 88.701 11.3526 79.925 12.4995Z" fill="#6C63FF"/>
<path opacity="0.5" d="M212.807 56.1214C218.453 56.1214 223.03 51.5303 223.03 45.867C223.03 40.2036 218.453 35.6125 212.807 35.6125C207.161 35.6125 202.584 40.2036 202.584 45.867C202.584 51.5303 207.161 56.1214 212.807 56.1214Z" fill="#6C63FF"/>
<path d="M180.612 82.0677H87.0599L92.4057 65.5662H95.2709L95.8439 69.846H169.92L170.302 65.5662H173.738L180.612 82.0677Z" fill="#6C63FF"/>
<path opacity="0.2" d="M180.612 82.0677H87.0599L92.4057 65.5662H95.2709L95.8439 69.846H169.92L170.302 65.5662H173.738L180.612 82.0677Z" fill="black"/>
<path d="M187.104 85.735H78.6607L75.9865 79.0129H189.396L187.104 85.735Z" fill="#6C63FF"/>
<path d="M183.668 90.015H81.3322L78.6606 85.7351H187.104L183.668 90.015Z" fill="#6C63FF"/>
<path d="M183.665 88.7925H81.3322V93.6822H183.665V88.7925Z" fill="#6C63FF"/>
<path d="M191.685 101.626H75.2223V119.963H191.685V101.626Z" fill="#6C63FF"/>
<path opacity="0.2" d="M191.685 101.626H75.2223V119.963H191.685V101.626Z" fill="black"/>
<path d="M265 163.356L0 161.523L7.63792 118.128H259.272L265 163.356Z" fill="#6C63FF"/>
<g opacity="0.2">
<path opacity="0.2" d="M75.0609 149.911H78.4454C79.5157 149.911 80.5421 150.338 81.2989 151.097C82.0557 151.856 82.4809 152.886 82.4809 153.959V162.136H71.0254V153.959C71.0254 152.886 71.4506 151.856 72.2074 151.097C72.9642 150.338 73.9906 149.911 75.0609 149.911Z" fill="black"/>
<path opacity="0.2" d="M99.8794 149.911H103.264C104.334 149.911 105.361 150.338 106.117 151.097C106.874 151.856 107.299 152.886 107.299 153.959V162.136H95.8439V153.959C95.8439 152.886 96.269 151.856 97.0259 151.097C97.7827 150.338 98.8091 149.911 99.8794 149.911Z" fill="black"/>
<path opacity="0.2" d="M130.808 149.911H134.192C135.263 149.911 136.289 150.338 137.046 151.097C137.803 151.856 138.228 152.886 138.228 153.959V162.136H126.772V153.959C126.772 152.886 127.197 151.856 127.954 151.097C128.711 150.338 129.737 149.911 130.808 149.911Z" fill="black"/>
<path opacity="0.2" d="M162.882 149.911H166.264C167.334 149.911 168.361 150.338 169.118 151.097C169.874 151.856 170.299 152.886 170.299 153.959V162.136H158.847V153.959C158.847 152.886 159.272 151.856 160.029 151.097C160.785 150.338 161.812 149.911 162.882 149.911Z" fill="black"/>
<path opacity="0.2" d="M188.467 149.911H191.852C192.922 149.911 193.949 150.338 194.705 151.097C195.462 151.856 195.887 152.886 195.887 153.959V162.136H184.432V153.959C184.432 152.886 184.857 151.856 185.614 151.097C186.371 150.338 187.397 149.911 188.467 149.911Z" fill="black"/>
</g>
<path opacity="0.2" d="M138.61 119.963H126.39V144.412H138.61V119.963Z" fill="black"/>
<path d="M77.1325 101.626H75.2223V119.963H77.1325V101.626Z" fill="#6C63FF"/>
<path d="M88.206 101.626H86.2959V119.963H88.206V101.626Z" fill="#6C63FF"/>
<path d="M100.426 101.626H98.5155V119.963H100.426V101.626Z" fill="#6C63FF"/>
<path d="M112.263 101.626H110.353V119.963H112.263V101.626Z" fill="#6C63FF"/>
<path d="M125.247 101.626H123.337V119.963H125.247V101.626Z" fill="#6C63FF"/>
<path d="M142.809 101.626H140.899V119.963H142.809V101.626Z" fill="#6C63FF"/>
<path d="M154.647 101.626H152.737V119.963H154.647V101.626Z" fill="#6C63FF"/>
<path d="M168.013 101.626H166.103V119.963H168.013V101.626Z" fill="#6C63FF"/>
<path d="M179.468 101.626H177.558V119.963H179.468V101.626Z" fill="#6C63FF"/>
<path d="M191.688 101.626H189.778V119.963H191.688V101.626Z" fill="#6C63FF"/>
<path d="M191.685 102.849H75.2224L68.3512 96.7368H198.177L191.685 102.849Z" fill="#6C63FF"/>
<path d="M79.804 102.849H75.2223V105.294H79.804V102.849Z" fill="#6C63FF"/>
<path d="M89.7342 102.849H85.1525V105.294H89.7342V102.849Z" fill="#6C63FF"/>
<path d="M101.569 102.849H96.9873V105.294H101.569V102.849Z" fill="#6C63FF"/>
<path d="M113.789 102.849H109.207V105.294H113.789V102.849Z" fill="#6C63FF"/>
<path d="M126.772 102.849H122.191V105.294H126.772V102.849Z" fill="#6C63FF"/>
<path d="M143.956 102.849H139.374V105.294H143.956V102.849Z" fill="#6C63FF"/>
<path d="M156.175 102.849H151.594V105.294H156.175V102.849Z" fill="#6C63FF"/>
<path d="M169.538 102.849H164.956V105.294H169.538V102.849Z" fill="#6C63FF"/>
<path d="M180.994 102.849H176.412V105.294H180.994V102.849Z" fill="#6C63FF"/>
<path d="M191.685 102.849H187.104V105.294H191.685V102.849Z" fill="#6C63FF"/>
<path d="M198.941 96.7369H67.9692L66.441 92.4597H200.087L198.941 96.7369Z" fill="#6C63FF"/>
<path opacity="0.2" d="M198.941 96.7369H67.9692L66.441 92.4597H200.087L198.941 96.7369Z" fill="black"/>
<path d="M132.5 95.5146C134.186 95.5146 135.554 93.3254 135.554 90.6248C135.554 87.9243 134.186 85.7351 132.5 85.7351C130.814 85.7351 129.446 87.9243 129.446 90.6248C129.446 93.3254 130.814 95.5146 132.5 95.5146Z" fill="#6C63FF"/>
<path opacity="0.2" d="M132.5 95.5146C134.186 95.5146 135.554 93.3254 135.554 90.6248C135.554 87.9243 134.186 85.7351 132.5 85.7351C130.814 85.7351 129.446 87.9243 129.446 90.6248C129.446 93.3254 130.814 95.5146 132.5 95.5146Z" fill="black"/>
<path d="M132.5 93.6795C133.555 93.6795 134.41 92.3119 134.41 90.6248C134.41 88.9377 133.555 87.5701 132.5 87.5701C131.445 87.5701 130.59 88.9377 130.59 90.6248C130.59 92.3119 131.445 93.6795 132.5 93.6795Z" fill="#6C63FF"/>
<path d="M177.206 161.137L164.109 151.056C164.109 151.056 163.052 146.854 162.629 143.913C162.207 140.971 161.572 128.369 161.572 128.369C161.873 127.278 162.072 126.162 162.167 125.034C162.296 125.007 162.436 124.974 162.557 124.939C163.536 124.689 164.443 124.214 165.208 123.553C165.973 122.891 166.575 122.06 166.966 121.126C168.311 117.769 166.573 113.802 164.373 111.142C162.172 108.481 159.404 106.344 157.956 103.046C156.17 98.9821 156.78 94.0708 155.868 89.6236C155.781 89.0004 155.55 88.4063 155.193 87.8884C154.628 87.1841 153.743 87.0303 152.952 86.7496C150.455 85.8618 148.583 83.4278 147.122 80.8884C144.757 76.7732 142.309 70.5153 137.437 70.1591C135.626 70.0269 133.735 70.6394 131.905 70.634C129.067 70.634 126.256 70.6691 123.442 71.0604C122.435 71.198 121.392 71.3869 120.552 72.0534C117.671 74.3391 118.976 80.3811 116.199 82.8476C115.373 83.5789 114.316 83.8406 113.382 84.3426C109.863 86.2315 108.3 91.2697 108.507 95.8032C108.604 97.9269 109.045 100.14 110.296 101.691C111.287 102.933 112.699 103.645 113.622 104.954C115.112 107.067 114.91 109.868 114.749 112.718C112.758 113.554 111.16 114.515 110.657 115.548C108.967 119.013 109.177 130.881 109.177 130.881C109.177 130.881 109.812 150.311 104.953 152.739L86.7855 165.342C86.7855 165.342 73.8987 154.105 70.7294 160.722C68.561 165.247 76.4733 167.808 81.6899 168.974C78.3996 171.316 76.5783 175.645 78.1225 178.578C80.5439 183.198 87.3128 186.35 87.3128 186.35C87.3128 186.35 113.127 187.599 125.058 184.917H125.255C130.321 185.837 137.59 186.806 143.42 186.223C143.53 186.493 143.608 186.665 143.608 186.665C143.608 186.665 181.004 189.817 187.76 177.002C191.228 170.431 187.609 167.395 183.262 165.997C188.128 165.609 193.671 164.243 194.308 160.093C195.479 152.526 177.206 161.137 177.206 161.137ZM173.439 165.155C166.598 167.657 161.042 167.797 158.085 167.608C156.63 164.432 150.574 150.664 150.415 141.452C150.453 139.395 150.819 137.598 151.637 136.249C153.399 133.342 153.918 131.065 153.859 129.332C153.859 129.203 153.859 129.079 153.859 128.955C153.867 128.425 153.815 127.897 153.705 127.379C153.996 128.091 154.083 128.87 153.956 129.629C153.321 132.886 155.013 153.994 155.013 153.994C155.013 153.994 156.385 158.719 159.237 160.085L173.439 165.155ZM106.436 163.663L112.984 159.462C112.984 159.462 116.048 157.996 116.358 154.415L118.51 137.352C118.658 138.084 118.852 138.805 119.091 139.511C119.473 140.631 119.629 142.272 119.659 144.226C119.586 153.738 116.358 169.541 116.358 169.541H116.398L116.374 169.654L116.145 169.667C110.832 169.505 98.4509 169.041 91.5178 168.078L106.436 163.663ZM94.9615 173.61V173.648H93.3473L94.9615 173.61Z" fill="url(#paint0_linear)"/>
<path d="M146.63 82.6046C148.042 85.0818 149.858 87.4619 152.266 88.3201C153.03 88.5899 153.88 88.7437 154.418 89.4292C154.762 89.9353 154.985 90.5144 155.069 91.1211C155.949 95.4577 155.36 100.248 157.087 104.209C158.486 107.418 161.163 109.509 163.291 112.097C165.419 114.685 167.09 118.554 165.799 121.825C165.426 122.731 164.849 123.539 164.112 124.184C163.376 124.829 162.501 125.294 161.556 125.544C159.775 126.027 157.916 125.813 156.108 125.503C153.724 125.079 151.298 124.424 149.312 122.805C145.876 120.006 144.424 114.979 142.627 110.51C141.782 108.416 140.66 106.222 138.804 105.472C136.675 104.614 134.286 106.047 132.906 108.149C131.526 110.251 130.913 112.893 130.246 115.435C129.492 118.303 128.537 121.285 126.557 123.161C125.698 124.001 124.615 124.574 123.439 124.81C122.262 125.046 121.043 124.935 119.928 124.491C117.722 123.568 115.976 121.237 115.47 118.53C114.687 114.358 116.562 109.355 114.262 106.057C113.369 104.781 112.005 104.085 111.034 102.876C109.836 101.362 109.398 99.2059 109.304 97.1361C109.102 92.716 110.614 87.7911 114.015 85.9615C114.924 85.4731 115.938 85.2167 116.737 84.5043C119.428 82.108 118.16 76.2172 120.945 73.9801C121.752 73.3297 122.764 73.1489 123.738 73.0113C126.466 72.6308 129.175 72.5876 131.919 72.5957C133.689 72.5957 135.516 72.0048 137.267 72.1343C141.978 72.4905 144.338 78.5919 146.63 82.6046Z" fill="#965D7B"/>
<path d="M96.1237 171.94L97.1541 184.183L169.223 183.754L167.851 170.388L143.485 167.544L100.756 170.129L96.1237 171.94Z" fill="#575988"/>
<path opacity="0.05" d="M96.1237 171.94L97.1541 184.183L169.223 183.754L167.851 170.388L143.485 167.544L100.756 170.129L96.1237 171.94Z" fill="black"/>
<path d="M143.547 180.499L119.554 182.753C119.554 182.753 135.992 186.951 145.589 184.911L143.547 180.499Z" fill="#F7C4A7"/>
<path opacity="0.1" d="M143.547 180.499L119.554 182.753C119.554 182.753 135.992 186.951 145.589 184.911L143.547 180.499Z" fill="black"/>
<path d="M125.271 94.2732C125.271 94.2732 129.968 106.665 123.025 112.194C116.081 117.723 121.8 133.189 121.8 133.189L148.551 131.961C148.551 131.961 151.206 114.553 149.775 110.864C149.775 110.864 143.444 112.707 142.016 108.816C140.587 104.924 139.565 94.2732 139.565 94.2732H125.271Z" fill="#F7C4A7"/>
<path d="M119.145 169.233C119.145 169.233 96.5811 168.72 89.9466 167.074C83.3122 165.428 77.5925 173.321 79.9412 177.828C82.2899 182.334 88.8194 185.405 88.8194 185.405C88.8194 185.405 122.408 187.043 129.659 182.437C129.659 182.437 132.417 174.552 129.659 173.016H94.644L120.471 172.503L119.145 169.233Z" fill="#575988"/>
<path d="M154.983 166.88C154.983 166.88 162.538 168.518 172.952 164.421C172.952 164.421 192.452 163.806 185.92 176.295C179.388 188.784 143.243 185.716 143.243 185.716C143.243 185.716 141.09 181.106 143.243 179.879C145.395 178.651 164.071 170.766 169.877 171.173L153.735 174.347L154.983 166.88Z" fill="#575988"/>
<path opacity="0.1" d="M140.49 100.234C140.1 97.3171 139.872 94.9397 139.872 94.9397H125.578C126.238 96.8175 126.696 98.7607 126.944 100.736C128.949 102.144 131.356 102.856 133.801 102.766C136.246 102.675 138.595 101.786 140.49 100.234Z" fill="black"/>
<path d="M133.081 102.104C139.283 102.104 144.311 97.0613 144.311 90.8406C144.311 84.6198 139.283 79.5769 133.081 79.5769C126.879 79.5769 121.852 84.6198 121.852 90.8406C121.852 97.0613 126.879 102.104 133.081 102.104Z" fill="#F7C4A7"/>
<path d="M126.498 110.453C126.498 110.453 113.022 113.014 111.389 116.39C109.756 119.766 109.96 131.343 109.96 131.343C109.96 131.343 110.574 150.289 105.876 152.642L88.3163 164.931C88.3163 164.931 75.8599 153.973 72.7983 160.425C69.7367 166.877 87.5011 169.233 87.5011 169.233L107.307 163.296L113.638 159.2C113.638 159.2 116.597 157.767 116.904 154.283L119.559 133.186L130.178 130.115H147.324L149.621 123.536C149.621 123.536 153.859 126.941 153.245 130.115C152.632 133.288 154.265 153.862 154.265 153.862C154.265 153.862 155.591 158.471 158.349 159.799L174.279 165.552C174.279 165.552 191.126 167.19 192.247 159.818C193.369 152.445 175.707 160.84 175.707 160.84L163.046 151.01C163.046 151.01 162.027 146.913 161.618 144.045C161.209 141.176 160.598 128.89 160.598 128.89C160.598 128.89 164.478 115.985 153.248 113.735L138.75 109.228L126.498 110.453Z" fill="#F7C4A7"/>
<path opacity="0.1" d="M117.461 113.063L119.554 126.939C119.554 126.939 117.402 133.391 119.554 139.741C121.706 146.09 116.896 169.746 116.896 169.746C116.896 169.746 142.113 177.841 157.52 168.518C157.52 168.518 146.189 144.555 150.986 136.567C155.782 128.58 151.064 125.455 151.064 125.455L151.817 110.772L148.346 109.749L146.304 124.265C146.304 124.265 132.215 134.095 121.801 125.492L119.554 109.722L117.461 113.063Z" fill="black"/>
<path opacity="0.07" d="M132.026 129.556C130.936 127.808 129.235 126.53 127.256 125.972C125.276 125.413 123.161 125.615 121.322 126.537C124.741 129.103 128.51 129.788 132.026 129.556Z" fill="white"/>
<path opacity="0.07" d="M137.813 128.018C138.904 126.27 140.605 124.992 142.584 124.433C144.563 123.875 146.679 124.076 148.518 124.998C145.102 127.565 141.33 128.253 137.813 128.018Z" fill="white"/>
<path opacity="0.1" d="M117.461 113.063L119.554 126.221C119.554 126.221 117.402 132.673 119.554 139.023C121.706 145.372 116.896 169.028 116.896 169.028C116.896 169.028 142.113 177.123 157.52 167.8C157.52 167.8 146.189 143.837 150.986 135.849C155.782 127.862 151.064 124.737 151.064 124.737L151.801 110.043L148.33 109.021L146.288 123.563C146.288 123.563 132.199 133.394 121.784 124.791L119.538 109.021L117.461 113.063Z" fill="black"/>
<path d="M117.359 112.96L119.554 126.426C119.554 126.426 117.402 132.878 119.554 139.228C121.706 145.577 116.896 169.233 116.896 169.233C116.896 169.233 142.113 177.328 157.52 168.005C157.52 168.005 146.189 144.042 150.986 136.054C155.782 128.067 151.064 124.942 151.064 124.942L151.801 110.248L148.33 109.226L146.288 123.768C146.288 123.768 132.199 133.599 121.784 124.996L119.538 109.226L117.359 112.96Z" fill="#FC6681"/>
<path d="M127.722 174.252L133.038 173.534C133.038 173.534 139.164 165.649 143.555 171.691C143.555 171.691 145.392 175.583 147.639 176.3C149.175 176.766 150.746 177.108 152.336 177.323L143.251 179.884C143.251 179.884 139.269 182.24 135.083 181.625C132.619 181.248 130.101 181.459 127.733 182.24L127.722 174.252Z" fill="#F7C4A7"/>
<path opacity="0.1" d="M121.852 140.815C121.852 140.815 131.448 142.248 133.081 139.689L121.852 140.815Z" fill="black"/>
<path opacity="0.1" d="M140.033 139.177C140.033 139.177 141.87 141.02 149.221 139.689L140.033 139.177Z" fill="black"/>
<path opacity="0.1" d="M121.34 110.605C121.34 110.605 128.384 111.627 129.713 111.015L121.34 110.605Z" fill="black"/>
<path opacity="0.1" d="M136.861 110.605C136.861 110.605 143.904 111.627 145.233 111.015L136.861 110.605Z" fill="black"/>
<path opacity="0.1" d="M128.489 173.483C128.489 173.483 130.428 182.658 128.489 182.982C126.549 183.306 123.791 181.471 123.791 181.266C123.791 181.061 125.015 175.224 125.015 175.224L128.489 173.483Z" fill="black"/>
<path d="M128.284 173.483C128.284 173.483 130.224 182.658 128.284 182.982C126.345 183.306 123.587 181.471 123.587 181.266C123.587 181.061 124.811 175.224 124.811 175.224L128.284 173.483Z" fill="#575988"/>
<path opacity="0.1" d="M118.806 109.264C117.951 111.258 117.647 113.611 118.556 115.581C119.25 117.084 120.606 118.301 120.867 119.936C121.195 121.987 119.68 124.073 120.245 126.07C120.461 126.836 120.964 127.484 121.475 128.091C123.03 129.934 125.096 131.718 127.496 131.575C127.875 127.856 124.671 124.249 125.72 120.662C126.097 119.378 126.979 118.309 127.512 117.084C128.397 115.052 128.271 112.731 127.951 110.537C127.485 107.356 126.307 103.451 123.162 101.961C121.714 101.276 119.664 101.227 119.148 103.087C118.879 104.08 119.524 105.013 119.613 105.985C119.726 107.218 119.282 108.154 118.806 109.264Z" fill="black"/>
<path d="M118.806 108.956C117.951 110.95 117.647 113.303 118.556 115.273C119.25 116.776 120.606 117.993 120.867 119.628C121.195 121.679 119.68 123.765 120.245 125.762C120.461 126.529 120.964 127.176 121.475 127.783C123.03 129.626 125.096 131.41 127.496 131.267C127.875 127.549 124.671 123.941 125.72 120.354C126.097 119.07 126.979 118.001 127.512 116.776C128.397 114.744 128.271 112.423 127.951 110.229C127.485 107.048 126.307 103.143 123.162 101.654C121.714 100.968 119.664 100.92 119.148 102.779C118.879 103.772 119.524 104.706 119.613 105.677C119.726 106.913 119.282 107.849 118.806 108.956Z" fill="#965D7B"/>
<path opacity="0.1" d="M119.605 85.3114C119.605 85.3114 134.512 83.2632 134.919 86.3341C135.325 89.4051 148.497 94.4297 148.497 94.4297L145.231 86.3341L139.207 76.2983C139.207 76.2983 128.177 75.4887 127.671 76.2983C127.165 77.1078 121.34 79.7794 121.34 79.7794L119.605 85.3114Z" fill="black"/>
<path d="M119.605 85.106C119.605 85.106 134.512 83.0578 134.919 86.1288C135.325 89.1997 148.497 94.2244 148.497 94.2244L145.231 86.1288L139.207 76.0956C139.207 76.0956 128.177 75.2861 127.671 76.0956C127.165 76.9052 121.34 79.5767 121.34 79.5767L119.605 85.106Z" fill="#965D7B"/>
<path opacity="0.1" d="M145.546 106.994C146.27 107.864 146.783 108.893 147.041 109.997C147.289 111.052 147.297 112.156 147.534 113.214C148.037 115.467 149.522 117.362 151.074 119.067C151.577 119.685 152.19 120.203 152.882 120.594C153.592 120.945 154.496 121.018 155.156 120.594C154.531 120.082 154.192 119.296 153.969 118.516C153.655 117.429 153.515 116.299 153.555 115.168C153.622 113.279 154.174 111.284 153.391 109.563C152.939 108.57 152.097 107.814 151.238 107.134C150.642 106.648 149.998 106.223 149.317 105.866C148.05 105.232 146.595 104.954 145.196 104.816C143.372 104.627 144.967 106.298 145.546 106.994Z" fill="black"/>
<path d="M145.546 106.684C146.271 107.556 146.783 108.586 147.041 109.692C147.289 110.748 147.297 111.851 147.534 112.909C148.037 115.162 149.522 117.057 151.074 118.762C151.577 119.38 152.19 119.898 152.882 120.29C153.592 120.64 154.496 120.713 155.156 120.29C154.531 119.777 154.192 118.992 153.969 118.212C153.655 117.125 153.515 115.994 153.555 114.863C153.622 112.974 154.174 110.98 153.391 109.258C152.939 108.265 152.097 107.509 151.238 106.829C150.642 106.343 149.998 105.918 149.317 105.561C148.05 104.927 146.595 104.649 145.196 104.511C143.372 104.32 144.967 105.99 145.546 106.684Z" fill="#965D7B"/>
<path opacity="0.1" d="M138.871 44.6364H137.02C137.195 44.6444 137.37 44.6167 137.534 44.555C137.698 44.4934 137.848 44.3989 137.975 44.2775C138.102 44.1561 138.202 44.0101 138.271 43.8485C138.34 43.6868 138.376 43.5129 138.376 43.3371C138.376 43.1613 138.34 42.9873 138.271 42.8257C138.202 42.664 138.102 42.5181 137.975 42.3966C137.848 42.2752 137.698 42.1808 137.534 42.1191C137.37 42.0574 137.195 42.0297 137.02 42.0377H122.027C121.693 42.053 121.379 42.1965 121.148 42.4385C120.917 42.6805 120.789 43.0024 120.789 43.3371C120.789 43.6718 120.917 43.9936 121.148 44.2356C121.379 44.4776 121.693 44.6212 122.027 44.6364H123.878C123.702 44.6284 123.528 44.6561 123.363 44.7178C123.199 44.7795 123.049 44.8739 122.923 44.9953C122.796 45.1168 122.695 45.2627 122.626 45.4243C122.557 45.586 122.522 45.76 122.522 45.9357C122.522 46.1115 122.557 46.2855 122.626 46.4472C122.695 46.6088 122.796 46.7547 122.923 46.8762C123.049 46.9976 123.199 47.092 123.363 47.1537C123.528 47.2154 123.702 47.2431 123.878 47.2351H121.287C121.112 47.2271 120.937 47.2548 120.773 47.3165C120.609 47.3781 120.459 47.4726 120.332 47.594C120.205 47.7154 120.104 47.8614 120.035 48.023C119.966 48.1847 119.931 48.3586 119.931 48.5344C119.931 48.7102 119.966 48.8842 120.035 49.0458C120.104 49.2075 120.205 49.3534 120.332 49.4749C120.459 49.5963 120.609 49.6907 120.773 49.7524C120.937 49.8141 121.112 49.8418 121.287 49.8338H136.28C136.455 49.8418 136.63 49.8141 136.794 49.7524C136.958 49.6907 137.108 49.5963 137.235 49.4749C137.362 49.3534 137.463 49.2075 137.531 49.0458C137.6 48.8842 137.636 48.7102 137.636 48.5344C137.636 48.3586 137.6 48.1847 137.531 48.023C137.463 47.8614 137.362 47.7154 137.235 47.594C137.108 47.4726 136.958 47.3781 136.794 47.3165C136.63 47.2548 136.455 47.2271 136.28 47.2351H138.871C139.046 47.2431 139.221 47.2154 139.385 47.1537C139.549 47.092 139.699 46.9976 139.826 46.8762C139.952 46.7547 140.053 46.6088 140.122 46.4472C140.191 46.2855 140.227 46.1115 140.227 45.9357C140.227 45.76 140.191 45.586 140.122 45.4243C140.053 45.2627 139.952 45.1168 139.826 44.9953C139.699 44.8739 139.549 44.7795 139.385 44.7178C139.221 44.6561 139.046 44.6284 138.871 44.6364Z" fill="#252223"/>
<path opacity="0.1" d="M211.51 44.6364H209.659C209.834 44.6444 210.009 44.6167 210.173 44.555C210.338 44.4934 210.488 44.3989 210.614 44.2775C210.741 44.1561 210.842 44.0101 210.911 43.8485C210.98 43.6868 211.015 43.5129 211.015 43.3371C211.015 43.1613 210.98 42.9873 210.911 42.8257C210.842 42.664 210.741 42.5181 210.614 42.3966C210.488 42.2752 210.338 42.1808 210.173 42.1191C210.009 42.0574 209.834 42.0297 209.659 42.0377H194.666C194.333 42.053 194.018 42.1965 193.788 42.4385C193.557 42.6805 193.428 43.0024 193.428 43.3371C193.428 43.6718 193.557 43.9936 193.788 44.2356C194.018 44.4776 194.333 44.6212 194.666 44.6364H196.517C196.342 44.6284 196.167 44.6561 196.003 44.7178C195.839 44.7795 195.689 44.8739 195.562 44.9953C195.435 45.1168 195.335 45.2627 195.266 45.4243C195.197 45.586 195.161 45.76 195.161 45.9357C195.161 46.1115 195.197 46.2855 195.266 46.4472C195.335 46.6088 195.435 46.7547 195.562 46.8762C195.689 46.9976 195.839 47.092 196.003 47.1537C196.167 47.2154 196.342 47.2431 196.517 47.2351H193.926C193.751 47.2271 193.576 47.2548 193.412 47.3165C193.248 47.3781 193.098 47.4726 192.971 47.594C192.845 47.7154 192.744 47.8614 192.675 48.023C192.606 48.1847 192.57 48.3586 192.57 48.5344C192.57 48.7102 192.606 48.8842 192.675 49.0458C192.744 49.2075 192.845 49.3534 192.971 49.4749C193.098 49.5963 193.248 49.6907 193.412 49.7524C193.576 49.8141 193.751 49.8418 193.926 49.8338H208.92C209.095 49.8418 209.27 49.8141 209.434 49.7524C209.598 49.6907 209.748 49.5963 209.874 49.4749C210.001 49.3534 210.102 49.2075 210.171 49.0458C210.24 48.8842 210.275 48.7102 210.275 48.5344C210.275 48.3586 210.24 48.1847 210.171 48.023C210.102 47.8614 210.001 47.7154 209.874 47.594C209.748 47.4726 209.598 47.3781 209.434 47.3165C209.27 47.2548 209.095 47.2271 208.92 47.2351H211.51C211.685 47.2431 211.86 47.2154 212.024 47.1537C212.189 47.092 212.339 46.9976 212.465 46.8762C212.592 46.7547 212.693 46.6088 212.762 46.4472C212.831 46.2855 212.866 46.1115 212.866 45.9357C212.866 45.76 212.831 45.586 212.762 45.4243C212.693 45.2627 212.592 45.1168 212.465 44.9953C212.339 44.8739 212.189 44.7795 212.024 44.7178C211.86 44.6561 211.685 44.6284 211.51 44.6364Z" fill="#252223"/>
<path opacity="0.1" d="M56.815 77.8283H54.964C55.1391 77.8363 55.314 77.8086 55.4781 77.7469C55.6422 77.6853 55.7922 77.5908 55.9189 77.4694C56.0456 77.348 56.1465 77.202 56.2154 77.0404C56.2843 76.8787 56.3198 76.7048 56.3198 76.529C56.3198 76.3532 56.2843 76.1792 56.2154 76.0176C56.1465 75.8559 56.0456 75.71 55.9189 75.5885C55.7922 75.4671 55.6422 75.3727 55.4781 75.311C55.314 75.2493 55.1391 75.2216 54.964 75.2296H39.9706C39.6373 75.2449 39.3226 75.3884 39.0921 75.6304C38.8616 75.8724 38.7329 76.1943 38.7329 76.529C38.7329 76.8637 38.8616 77.1855 39.0921 77.4275C39.3226 77.6695 39.6373 77.8131 39.9706 77.8283H41.8216C41.4883 77.8436 41.1736 77.9871 40.9431 78.2291C40.7126 78.4711 40.5839 78.7929 40.5839 79.1276C40.5839 79.4624 40.7126 79.7842 40.9431 80.0262C41.1736 80.2682 41.4883 80.4117 41.8216 80.427H39.2308C39.0557 80.419 38.8808 80.4467 38.7167 80.5084C38.5526 80.57 38.4027 80.6645 38.2759 80.7859C38.1492 80.9073 38.0483 81.0533 37.9794 81.2149C37.9105 81.3766 37.875 81.5505 37.875 81.7263C37.875 81.9021 37.9105 82.0761 37.9794 82.2377C38.0483 82.3994 38.1492 82.5453 38.2759 82.6668C38.4027 82.7882 38.5526 82.8826 38.7167 82.9443C38.8808 83.006 39.0557 83.0337 39.2308 83.0257H54.2241C54.3992 83.0337 54.5741 83.006 54.7382 82.9443C54.9024 82.8826 55.0523 82.7882 55.179 82.6668C55.3057 82.5453 55.4066 82.3994 55.4755 82.2377C55.5444 82.0761 55.58 81.9021 55.58 81.7263C55.58 81.5505 55.5444 81.3766 55.4755 81.2149C55.4066 81.0533 55.3057 80.9073 55.179 80.7859C55.0523 80.6645 54.9024 80.57 54.7382 80.5084C54.5741 80.4467 54.3992 80.419 54.2241 80.427H56.815C57.1483 80.4117 57.463 80.2682 57.6935 80.0262C57.924 79.7842 58.0527 79.4624 58.0527 79.1276C58.0527 78.7929 57.924 78.4711 57.6935 78.2291C57.463 77.9871 57.1483 77.8436 56.815 77.8283Z" fill="#252223"/>
<path d="M212.196 182.183C212.196 182.183 205.559 159.58 213.442 142.944C216.751 135.963 217.849 128.123 216.321 120.546C215.59 116.948 214.532 113.425 213.16 110.022" stroke="#535461" stroke-width="2" stroke-miterlimit="10"/>
<path d="M218.053 99.5218C218.053 102.293 213.052 110.316 213.052 110.316C213.052 110.316 208.051 102.282 208.051 99.5218C208.035 98.8534 208.153 98.1887 208.397 97.5666C208.642 96.9446 209.008 96.3778 209.473 95.8996C209.939 95.4214 210.496 95.0414 211.11 94.782C211.724 94.5226 212.384 94.3889 213.051 94.3889C213.717 94.3889 214.377 94.5226 214.991 94.782C215.606 95.0414 216.162 95.4214 216.628 95.8996C217.094 96.3778 217.46 96.9446 217.704 97.5666C217.948 98.1887 218.066 98.8534 218.051 99.5218H218.053Z" fill="#6C63FF"/>
<path d="M226.329 114.866C224.828 117.192 216.278 121.207 216.278 121.207C216.278 121.207 216.434 111.738 217.935 109.412C218.671 108.332 219.799 107.583 221.078 107.325C222.358 107.067 223.687 107.321 224.782 108.032C225.877 108.743 226.652 109.856 226.941 111.132C227.23 112.408 227.01 113.747 226.329 114.863V114.866Z" fill="#6C63FF"/>
<path d="M225.966 141.087C223.499 142.334 214.098 141.473 214.098 141.473C214.098 141.473 218.998 133.377 221.465 132.131C222.052 131.818 222.696 131.627 223.359 131.567C224.022 131.508 224.689 131.581 225.323 131.784C225.957 131.986 226.544 132.314 227.05 132.746C227.556 133.179 227.971 133.709 228.271 134.305C228.571 134.901 228.749 135.55 228.795 136.216C228.841 136.881 228.754 137.549 228.54 138.181C228.325 138.813 227.987 139.395 227.546 139.894C227.104 140.393 226.568 140.799 225.968 141.087H225.966Z" fill="#6C63FF"/>
<path d="M221.239 160.865C219.019 162.511 209.606 163.256 209.606 163.256C209.606 163.256 213.071 154.448 215.29 152.799C215.818 152.401 216.419 152.112 217.058 151.948C217.698 151.784 218.364 151.748 219.017 151.844C219.67 151.939 220.298 152.163 220.865 152.503C221.431 152.843 221.925 153.292 222.318 153.825C222.71 154.357 222.994 154.962 223.152 155.605C223.31 156.248 223.34 156.916 223.24 157.57C223.14 158.225 222.911 158.853 222.568 159.418C222.224 159.984 221.773 160.475 221.239 160.865Z" fill="#6C63FF"/>
<path d="M205.777 121.744C207.757 123.674 216.988 125.673 216.988 125.673C216.988 125.673 214.728 116.479 212.748 114.547C211.79 113.657 210.523 113.178 209.218 113.213C207.912 113.247 206.672 113.793 205.762 114.732C204.852 115.672 204.345 116.931 204.348 118.24C204.351 119.55 204.865 120.807 205.78 121.741L205.777 121.744Z" fill="#6C63FF"/>
<path d="M200.542 144.944C203.009 146.19 212.409 145.329 212.409 145.329C212.409 145.329 207.51 137.234 205.043 135.987C204.455 135.675 203.811 135.483 203.148 135.424C202.486 135.364 201.818 135.438 201.184 135.64C200.551 135.843 199.963 136.17 199.457 136.603C198.951 137.036 198.536 137.566 198.236 138.161C197.937 138.757 197.759 139.407 197.713 140.072C197.666 140.738 197.753 141.406 197.968 142.038C198.182 142.669 198.52 143.251 198.961 143.75C199.403 144.249 199.939 144.655 200.539 144.944H200.542Z" fill="#6C63FF"/>
<path d="M198.538 168.194C200.757 169.84 210.171 170.585 210.171 170.585C210.171 170.585 206.705 161.774 204.483 160.128C203.956 159.73 203.355 159.441 202.715 159.277C202.076 159.113 201.41 159.078 200.757 159.173C200.103 159.268 199.475 159.492 198.909 159.832C198.342 160.172 197.849 160.622 197.456 161.154C197.063 161.686 196.78 162.291 196.621 162.934C196.463 163.577 196.433 164.245 196.534 164.899C196.634 165.554 196.862 166.182 197.206 166.747C197.549 167.313 198.001 167.804 198.535 168.194H198.538Z" fill="#6C63FF"/>
<path d="M218.053 99.5218C218.053 102.293 213.052 110.316 213.052 110.316C213.052 110.316 208.051 102.282 208.051 99.5218C208.035 98.8534 208.153 98.1887 208.397 97.5666C208.642 96.9446 209.008 96.3778 209.473 95.8996C209.939 95.4214 210.496 95.0414 211.11 94.782C211.724 94.5226 212.384 94.3889 213.051 94.3889C213.717 94.3889 214.377 94.5226 214.991 94.782C215.606 95.0414 216.162 95.4214 216.628 95.8996C217.094 96.3778 217.46 96.9446 217.704 97.5666C217.948 98.1887 218.066 98.8534 218.051 99.5218H218.053Z" fill="#FC6681"/>
<path d="M226.329 114.866C224.828 117.192 216.278 121.207 216.278 121.207C216.278 121.207 216.434 111.738 217.935 109.412C218.671 108.332 219.799 107.583 221.078 107.325C222.358 107.067 223.687 107.321 224.782 108.032C225.877 108.743 226.652 109.856 226.941 111.132C227.23 112.408 227.01 113.747 226.329 114.863V114.866Z" fill="#FC6681"/>
<path d="M225.966 141.087C223.499 142.334 214.098 141.473 214.098 141.473C214.098 141.473 218.998 133.377 221.465 132.131C222.052 131.818 222.696 131.627 223.359 131.567C224.022 131.508 224.689 131.581 225.323 131.784C225.957 131.986 226.544 132.314 227.05 132.746C227.556 133.179 227.971 133.709 228.271 134.305C228.571 134.901 228.749 135.55 228.795 136.216C228.841 136.881 228.754 137.549 228.54 138.181C228.325 138.813 227.987 139.395 227.546 139.894C227.104 140.393 226.568 140.799 225.968 141.087H225.966Z" fill="#FC6681"/>
<path d="M221.239 160.865C219.019 162.511 209.606 163.256 209.606 163.256C209.606 163.256 213.071 154.448 215.29 152.799C215.818 152.401 216.419 152.112 217.058 151.948C217.698 151.784 218.364 151.748 219.017 151.844C219.67 151.939 220.298 152.163 220.865 152.503C221.431 152.843 221.925 153.292 222.318 153.825C222.71 154.357 222.994 154.962 223.152 155.605C223.31 156.248 223.34 156.916 223.24 157.57C223.14 158.225 222.911 158.853 222.568 159.418C222.224 159.984 221.773 160.475 221.239 160.865Z" fill="#FC6681"/>
<path d="M205.777 121.744C207.757 123.674 216.988 125.673 216.988 125.673C216.988 125.673 214.728 116.479 212.748 114.547C211.79 113.657 210.523 113.178 209.218 113.213C207.912 113.247 206.672 113.793 205.762 114.732C204.852 115.672 204.345 116.931 204.348 118.24C204.351 119.55 204.865 120.807 205.78 121.741L205.777 121.744Z" fill="#FC6681"/>
<path d="M200.542 144.944C203.009 146.19 212.409 145.329 212.409 145.329C212.409 145.329 207.51 137.234 205.043 135.987C204.455 135.675 203.811 135.483 203.148 135.424C202.486 135.364 201.818 135.438 201.184 135.64C200.551 135.843 199.963 136.17 199.457 136.603C198.951 137.036 198.536 137.566 198.236 138.161C197.937 138.757 197.759 139.407 197.713 140.072C197.666 140.738 197.753 141.406 197.968 142.038C198.182 142.669 198.52 143.251 198.961 143.75C199.403 144.249 199.939 144.655 200.539 144.944H200.542Z" fill="#FC6681"/>
<path d="M198.538 168.194C200.757 169.84 210.171 170.585 210.171 170.585C210.171 170.585 206.705 161.774 204.483 160.128C203.956 159.73 203.355 159.441 202.715 159.277C202.076 159.113 201.41 159.078 200.757 159.173C200.103 159.268 199.475 159.492 198.909 159.832C198.342 160.172 197.849 160.622 197.456 161.154C197.063 161.686 196.78 162.291 196.621 162.934C196.463 163.577 196.433 164.245 196.534 164.899C196.634 165.554 196.862 166.182 197.206 166.747C197.549 167.313 198.001 167.804 198.535 168.194H198.538Z" fill="#FC6681"/>
<path d="M55.6177 181.644C55.6177 181.644 48.9806 159.041 56.8633 142.404C60.1725 135.423 61.2701 127.584 59.742 120.006C59.0113 116.409 57.9532 112.886 56.5809 109.482" stroke="#535461" stroke-width="2" stroke-miterlimit="10"/>
<path d="M61.4747 98.982C61.4747 101.753 56.4733 109.776 56.4733 109.776C56.4733 109.776 51.4719 101.743 51.4719 98.982C51.4565 98.3136 51.5744 97.6489 51.8187 97.0268C52.063 96.4048 52.4288 95.838 52.8947 95.3598C53.3605 94.8816 53.9169 94.5016 54.5312 94.2422C55.1456 93.9828 55.8054 93.8491 56.4719 93.8491C57.1385 93.8491 57.7983 93.9828 58.4126 94.2422C59.027 94.5016 59.5834 94.8816 60.0492 95.3598C60.515 95.838 60.8809 96.4048 61.1252 97.0268C61.3695 97.6489 61.4874 98.3136 61.472 98.982H61.4747Z" fill="#6C63FF"/>
<path d="M69.7501 114.326C68.2489 116.652 59.699 120.667 59.699 120.667C59.699 120.667 59.855 111.198 61.3562 108.872C62.0926 107.792 63.2207 107.043 64.4998 106.785C65.7789 106.527 67.1078 106.781 68.203 107.492C69.2982 108.204 70.073 109.316 70.362 110.592C70.651 111.868 70.4315 113.207 69.7501 114.323V114.326Z" fill="#6C63FF"/>
<path d="M69.3869 140.547C66.9199 141.794 57.5198 140.933 57.5198 140.933C57.5198 140.933 62.4189 132.838 64.886 131.591C66.0664 131.023 67.4218 130.942 68.6611 131.365C69.9004 131.789 70.9248 132.683 71.5144 133.855C72.1039 135.028 72.2116 136.385 71.8144 137.636C71.4171 138.888 70.5466 139.933 69.3896 140.547H69.3869Z" fill="#6C63FF"/>
<path d="M64.6599 160.325C62.4404 161.971 53.0269 162.716 53.0269 162.716C53.0269 162.716 56.492 153.908 58.7116 152.259C59.2392 151.861 59.8401 151.572 60.4797 151.408C61.1193 151.244 61.7849 151.209 62.4382 151.304C63.0914 151.399 63.7194 151.624 64.2859 151.964C64.8524 152.303 65.3462 152.753 65.7387 153.285C66.1313 153.817 66.415 154.422 66.5733 155.065C66.7316 155.708 66.7615 156.376 66.6612 157.03C66.5609 157.685 66.3324 158.313 65.989 158.878C65.6455 159.444 65.1938 159.936 64.6599 160.325Z" fill="#6C63FF"/>
<path d="M49.1985 121.204C51.1786 123.134 60.4092 125.133 60.4092 125.133C60.4092 125.133 58.1493 115.94 56.1692 114.007C55.2112 113.117 53.9441 112.639 52.6388 112.673C51.3335 112.708 50.0934 113.253 49.1835 114.192C48.2736 115.132 47.7661 116.391 47.7694 117.701C47.7727 119.01 48.2866 120.267 49.2012 121.202L49.1985 121.204Z" fill="#6C63FF"/>
<path d="M43.9631 144.404C46.4301 145.65 55.8302 144.79 55.8302 144.79C55.8302 144.79 50.9311 136.694 48.464 135.447C47.2836 134.879 45.9282 134.798 44.6889 135.222C43.4496 135.645 42.4252 136.539 41.8357 137.711C41.2461 138.884 41.1384 140.241 41.5356 141.493C41.9329 142.744 42.8034 143.789 43.9604 144.404H43.9631Z" fill="#6C63FF"/>
<path d="M41.9587 167.654C44.1783 169.301 53.5918 170.045 53.5918 170.045C53.5918 170.045 50.1266 161.235 47.9044 159.589C47.3768 159.19 46.7759 158.901 46.1363 158.737C45.4967 158.573 44.8311 158.538 44.1778 158.633C43.5245 158.729 42.8966 158.953 42.3301 159.293C41.7636 159.633 41.2698 160.082 40.8772 160.614C40.4847 161.147 40.201 161.752 40.0427 162.395C39.8844 163.037 39.8545 163.705 39.9548 164.36C40.0551 165.014 40.2835 165.642 40.627 166.208C40.9705 166.773 41.4222 167.265 41.956 167.654H41.9587Z" fill="#6C63FF"/>
<path d="M61.4747 98.982C61.4747 101.753 56.4733 109.776 56.4733 109.776C56.4733 109.776 51.4719 101.743 51.4719 98.982C51.4565 98.3136 51.5744 97.6489 51.8187 97.0268C52.063 96.4048 52.4288 95.838 52.8947 95.3598C53.3605 94.8816 53.9169 94.5016 54.5312 94.2422C55.1456 93.9828 55.8054 93.8491 56.4719 93.8491C57.1385 93.8491 57.7983 93.9828 58.4126 94.2422C59.027 94.5016 59.5834 94.8816 60.0492 95.3598C60.515 95.838 60.8809 96.4048 61.1252 97.0268C61.3695 97.6489 61.4874 98.3136 61.472 98.982H61.4747Z" fill="#FC6681"/>
<path d="M69.7501 114.326C68.2489 116.652 59.699 120.667 59.699 120.667C59.699 120.667 59.855 111.198 61.3562 108.872C62.0926 107.792 63.2207 107.043 64.4998 106.785C65.7789 106.527 67.1078 106.781 68.203 107.492C69.2982 108.204 70.073 109.316 70.362 110.592C70.651 111.868 70.4315 113.207 69.7501 114.323V114.326Z" fill="#FC6681"/>
<path d="M69.3869 140.547C66.9199 141.794 57.5198 140.933 57.5198 140.933C57.5198 140.933 62.4189 132.838 64.886 131.591C66.0664 131.023 67.4218 130.942 68.6611 131.365C69.9004 131.789 70.9248 132.683 71.5144 133.855C72.1039 135.028 72.2116 136.385 71.8144 137.636C71.4171 138.888 70.5466 139.933 69.3896 140.547H69.3869Z" fill="#FC6681"/>
<path d="M64.6599 160.325C62.4404 161.971 53.0269 162.716 53.0269 162.716C53.0269 162.716 56.492 153.908 58.7116 152.259C59.2392 151.861 59.8401 151.572 60.4797 151.408C61.1193 151.244 61.7849 151.209 62.4382 151.304C63.0914 151.399 63.7194 151.624 64.2859 151.964C64.8524 152.303 65.3462 152.753 65.7387 153.285C66.1313 153.817 66.415 154.422 66.5733 155.065C66.7316 155.708 66.7615 156.376 66.6612 157.03C66.5609 157.685 66.3324 158.313 65.989 158.878C65.6455 159.444 65.1938 159.936 64.6599 160.325Z" fill="#FC6681"/>
<path d="M49.1985 121.204C51.1786 123.134 60.4092 125.133 60.4092 125.133C60.4092 125.133 58.1493 115.94 56.1692 114.007C55.2112 113.117 53.9441 112.639 52.6388 112.673C51.3335 112.708 50.0934 113.253 49.1835 114.192C48.2736 115.132 47.7661 116.391 47.7694 117.701C47.7727 119.01 48.2866 120.267 49.2012 121.202L49.1985 121.204Z" fill="#FC6681"/>
<path d="M43.9631 144.404C46.4301 145.65 55.8302 144.79 55.8302 144.79C55.8302 144.79 50.9311 136.694 48.464 135.447C47.2836 134.879 45.9282 134.798 44.6889 135.222C43.4496 135.645 42.4252 136.539 41.8357 137.711C41.2461 138.884 41.1384 140.241 41.5356 141.493C41.9329 142.744 42.8034 143.789 43.9604 144.404H43.9631Z" fill="#FC6681"/>
<path d="M41.9587 167.654C44.1783 169.301 53.5918 170.045 53.5918 170.045C53.5918 170.045 50.1266 161.235 47.9044 159.589C47.3768 159.19 46.7759 158.901 46.1363 158.737C45.4967 158.573 44.8311 158.538 44.1778 158.633C43.5245 158.729 42.8966 158.953 42.3301 159.293C41.7636 159.633 41.2698 160.082 40.8772 160.614C40.4847 161.147 40.201 161.752 40.0427 162.395C39.8844 163.037 39.8545 163.705 39.9548 164.36C40.0551 165.014 40.2835 165.642 40.627 166.208C40.9705 166.773 41.4222 167.265 41.956 167.654H41.9587Z" fill="#FC6681"/>
</g>
<defs>
<linearGradient id="paint0_linear" x1="132.368" y1="187.003" x2="132.368" y2="70.1564" gradientUnits="userSpaceOnUse">
<stop stop-color="#808080" stop-opacity="0.25"/>
<stop offset="0.54" stop-color="#808080" stop-opacity="0.12"/>
<stop offset="1" stop-color="#808080" stop-opacity="0.1"/>
</linearGradient>
<clipPath id="clip0">
<rect width="265" height="187" fill="white"/>
</clipPath>
</defs>
</svg>
