<svg width="85" height="85" viewBox="0 0 85 85" fill="none" xmlns="http://www.w3.org/2000/svg">
<circle cx="42.5" cy="42.5" r="41" stroke="#E5CBE6" stroke-width="3"/>
<path d="M40.6379 30.5679L37.9746 31.9488L37.9826 31.9643L37.9908 31.9796L40.6379 30.5679ZM40.9657 31.5514L37.9761 31.8006L37.9863 31.9232L38.0066 32.0446L40.9657 31.5514ZM39.6543 55.995L40.5577 58.8557L39.6543 55.995ZM36.23 56.0314L35.3835 58.9095L35.3835 58.9095L36.23 56.0314ZM35.2829 55.5943L37.1247 53.2262H37.1247L35.2829 55.5943ZM34.7729 54.8657L31.8948 55.7122L31.9291 55.829L31.9728 55.9426L34.7729 54.8657ZM34.5907 40.7679H37.5907V32.2689L32.2555 38.8846L34.5907 40.7679ZM31.9314 44.3743L34.3702 46.1214L34.3763 46.1129L34.3824 46.1043L31.9314 44.3743ZM29.7093 47.4343L32.0924 49.2566L32.0924 49.2566L29.7093 47.4343ZM29.0536 48.3086L31.3582 50.2291L31.4298 50.1433L31.4948 50.0523L29.0536 48.3086ZM28.1429 48.9643L29.646 51.5606L29.6663 51.5488L29.6864 51.5368L28.1429 48.9643ZM25.1193 49.0007L23.555 51.5606L23.637 51.6107L23.7221 51.6555L25.1193 49.0007ZM24.1722 48.2357L21.746 50.0002L21.7865 50.056L21.8296 50.1098L24.1722 48.2357ZM23.8807 47.835L26.3069 46.0705L26.2664 46.0147L26.2233 45.9609L23.8807 47.835ZM21.0029 43.9736L18.5677 45.7257L18.5728 45.7328L18.578 45.7399L21.0029 43.9736ZM18.6714 40.7679L20.9761 38.8473L15.6714 32.4817V40.7679H18.6714ZM18.5986 54.3193L15.6394 53.8261L15.621 53.9364L15.6109 54.0477L18.5986 54.3193ZM18.2707 55.23L15.666 53.7416L15.657 53.7573L15.6483 53.7731L18.2707 55.23ZM12.6607 55.23L15.2832 53.7731L15.2744 53.7573L15.2655 53.7416L12.6607 55.23ZM12.2964 54.2829L9.30681 54.532L9.31703 54.6546L9.33727 54.7761L12.2964 54.2829ZM12.2964 31.515L9.33727 31.0218L9.31889 31.1321L9.30877 31.2434L12.2964 31.515ZM12.6607 30.5314L10.0622 29.0323L10.0372 29.0756L10.0137 29.1197L12.6607 30.5314ZM17.1779 29.8393L16.1408 32.6543L16.2274 32.6862L16.3158 32.7128L17.1779 29.8393ZM18.125 30.3129L15.8472 32.2652L15.9222 32.3527L16.0037 32.4342L18.125 30.3129ZM18.3436 30.5314L20.7301 28.7135L20.6077 28.5529L20.4649 28.4101L18.3436 30.5314ZM26.6129 41.3871L24.2264 43.205L26.6226 46.3507L29.0065 43.1956L26.6129 41.3871ZM34.8822 30.5679L37.2343 32.43L37.3347 32.3032L37.4209 32.1663L34.8822 30.5679ZM37.9908 31.9796C38.0235 32.0409 38.0272 32.0586 38.0195 32.0356C38.0119 32.0127 37.987 31.9313 37.9761 31.8006L43.9554 31.3023C43.8863 30.473 43.5979 29.7429 43.2849 29.1561L37.9908 31.9796ZM38.0066 32.0446C38.0062 32.0427 38.009 32.0593 38.013 32.0986C38.0169 32.137 38.0213 32.1901 38.0253 32.2599C38.0333 32.401 38.0386 32.5878 38.0386 32.8264H44.0386C44.0386 32.2207 44.0149 31.598 43.9249 31.0582L38.0066 32.0446ZM38.0386 32.8264V53.0443H44.0386V32.8264H38.0386ZM38.0386 53.0443C38.0386 53.3306 38.0185 53.5301 37.9962 53.6584C37.9737 53.7883 37.9549 53.8107 37.9765 53.7646C38.0012 53.7121 38.0737 53.5817 38.2275 53.44C38.3876 53.2925 38.5742 53.1901 38.7509 53.1343L40.5577 58.8557C43.5186 57.9207 44.0386 54.947 44.0386 53.0443H38.0386ZM38.7509 53.1343C38.6818 53.1561 38.4299 53.2136 37.9057 53.2136V59.2136C38.7901 59.2136 39.7039 59.1254 40.5577 58.8557L38.7509 53.1343ZM37.9057 53.2136C37.6361 53.2136 37.4315 53.2018 37.2828 53.1856C37.1301 53.169 37.0698 53.1514 37.0765 53.1533L35.3835 58.9095C36.1897 59.1466 37.0723 59.2136 37.9057 59.2136V53.2136ZM37.0765 53.1533C37.0294 53.1395 36.9948 53.1278 36.9714 53.1192C36.9477 53.1105 36.9383 53.1061 36.9408 53.1072C36.9431 53.1082 36.9611 53.1167 36.9912 53.1345C37.0212 53.1522 37.0676 53.1819 37.1247 53.2262L33.4411 57.9623C34.0743 58.4549 34.7879 58.7343 35.3835 58.9095L37.0765 53.1533ZM37.1247 53.2262C37.4234 53.4586 37.5418 53.7078 37.5729 53.7888L31.9728 55.9426C32.2468 56.6551 32.7052 57.39 33.4411 57.9623L37.1247 53.2262ZM37.651 54.0192C37.6627 54.0591 37.6423 54.0017 37.6225 53.7954C37.6038 53.6008 37.5907 53.3305 37.5907 52.9714H31.5907C31.5907 53.8862 31.6475 54.8716 31.8948 55.7122L37.651 54.0192ZM37.5907 52.9714V40.7679H31.5907V52.9714H37.5907ZM32.2555 38.8846C31.5848 39.7162 30.6525 40.9839 29.4805 42.6442L34.3824 46.1043C35.5418 44.4618 36.3824 43.3252 36.926 42.6511L32.2555 38.8846ZM29.4927 42.6271C28.3175 44.2675 27.6073 45.2444 27.3262 45.6119L32.0924 49.2566C32.4428 48.7984 33.2139 47.7354 34.3702 46.1214L29.4927 42.6271ZM27.3262 45.6119C27.0112 46.0239 26.7655 46.3505 26.6124 46.5649L31.4948 50.0523C31.5846 49.9266 31.776 49.6704 32.0924 49.2566L27.3262 45.6119ZM26.7489 46.388C26.8104 46.3143 26.8631 46.26 26.8978 46.2259C26.9334 46.191 26.9608 46.1668 26.976 46.1537C27.0043 46.1295 27.0104 46.1267 26.9819 46.1472C26.9557 46.1661 26.9114 46.1966 26.8449 46.2396C26.7791 46.2821 26.6979 46.3327 26.5994 46.3918L29.6864 51.5368C29.9685 51.3675 30.2432 51.1925 30.4878 51.0164C30.6867 50.8731 31.0466 50.6031 31.3582 50.2291L26.7489 46.388ZM26.6398 46.368C26.6383 46.3688 26.6398 46.3679 26.6437 46.3663C26.6476 46.3647 26.6514 46.3634 26.6542 46.3627C26.657 46.362 26.6561 46.3624 26.6506 46.3631C26.645 46.3638 26.6327 46.365 26.6129 46.365V52.365C27.6731 52.365 28.7056 52.105 29.646 51.5606L26.6398 46.368ZM26.6129 46.365C26.553 46.365 26.5362 46.3563 26.5165 46.346L23.7221 51.6555C24.6252 52.1308 25.6042 52.365 26.6129 52.365V46.365ZM26.6837 46.4409C26.5493 46.3588 26.4734 46.3025 26.4397 46.2753C26.424 46.2626 26.4243 46.2618 26.4363 46.2734C26.448 46.2848 26.4766 46.3139 26.5148 46.3616L21.8296 50.1098C22.337 50.7441 22.9873 51.2136 23.555 51.5606L26.6837 46.4409ZM26.5984 46.4712L26.3069 46.0705L21.4545 49.5995L21.746 50.0002L26.5984 46.4712ZM26.2233 45.9609C25.7875 45.4161 24.8686 44.1853 23.4278 42.2073L18.578 45.7399C20.0029 47.6961 21.0025 49.0396 21.5381 49.7091L26.2233 45.9609ZM23.438 42.2214C22.0652 40.3135 21.1876 39.1011 20.9761 38.8473L16.3668 42.6884C16.3457 42.6631 16.4895 42.8523 16.9192 43.4431C17.3032 43.9712 17.8522 44.7313 18.5677 45.7257L23.438 42.2214ZM15.6714 40.7679V53.0443H21.6714V40.7679H15.6714ZM15.6714 53.0443C15.6714 53.283 15.6662 53.4697 15.6581 53.6108C15.6541 53.6806 15.6498 53.7337 15.6459 53.7722C15.6419 53.8114 15.6391 53.828 15.6394 53.8261L21.5578 54.8125C21.6477 54.2727 21.6714 53.65 21.6714 53.0443H15.6714ZM15.6109 54.0477C15.626 53.8819 15.6608 53.7727 15.6757 53.7312C15.6908 53.6893 15.6945 53.6917 15.666 53.7416L20.8755 56.7184C21.1929 56.1629 21.5094 55.4366 21.5863 54.5909L15.6109 54.0477ZM15.6483 53.7731C15.7804 53.5353 15.9464 53.3667 16.0882 53.2603C16.2212 53.1606 16.3118 53.1306 16.3058 53.1327C16.2996 53.1349 16.2301 53.1574 16.0739 53.178C15.9198 53.1984 15.7082 53.2136 15.4293 53.2136V59.2136C16.3714 59.2136 17.359 59.1175 18.2685 58.8026C19.2018 58.4796 20.2463 57.8514 20.8932 56.6869L15.6483 53.7731ZM15.4293 53.2136C15.1661 53.2136 14.969 53.1988 14.8283 53.1796C14.6857 53.1602 14.6275 53.1397 14.6304 53.1408C14.6341 53.1421 14.7279 53.1755 14.8602 53.2766C15.0007 53.384 15.1583 53.5482 15.2832 53.7731L10.0383 56.6869C10.672 57.8277 11.687 58.4625 12.6218 58.7946C13.5264 59.1159 14.5036 59.2136 15.4293 59.2136V53.2136ZM15.2655 53.7416C15.2323 53.6835 15.2224 53.6572 15.224 53.6613C15.2256 53.6656 15.2423 53.7097 15.2556 53.7897L9.33727 54.7761C9.45973 55.5109 9.7396 56.1647 10.056 56.7184L15.2655 53.7416ZM15.2861 54.0337C15.2725 53.8711 15.26 53.5355 15.26 52.9714H9.26002C9.26002 53.573 9.27179 54.1118 9.30681 54.532L15.2861 54.0337ZM15.26 52.9714V32.7536H9.26002V52.9714H15.26ZM15.26 32.7536C15.26 32.2107 15.2728 31.9111 15.2841 31.7866L9.30877 31.2434C9.27151 31.6532 9.26002 32.1793 9.26002 32.7536H15.26ZM15.2556 32.0082C15.2437 32.0799 15.2308 32.1099 15.2372 32.0925C15.2434 32.0757 15.2633 32.0266 15.3078 31.9432L10.0137 29.1197C9.72228 29.666 9.45594 30.3097 9.33727 31.0218L15.2556 32.0082ZM15.2593 32.0306C15.1165 32.2781 14.9413 32.4468 14.7997 32.5491C14.667 32.6449 14.5801 32.6714 14.593 32.6671C14.6054 32.663 14.6813 32.64 14.8432 32.6194C15.0028 32.5991 15.2194 32.5843 15.5022 32.5843V26.5843C14.5674 26.5843 13.5924 26.6761 12.6956 26.975C11.7845 27.2787 10.7276 27.8789 10.0622 29.0323L15.2593 32.0306ZM15.5022 32.5843C15.9149 32.5843 16.1016 32.6399 16.1408 32.6543L18.215 27.0243C17.3313 26.6987 16.4009 26.5843 15.5022 26.5843V32.5843ZM16.3158 32.7128C16.4585 32.7556 16.4841 32.7736 16.4373 32.7502C16.4105 32.7368 16.3405 32.7001 16.2462 32.6332C16.1542 32.5678 16.0054 32.4498 15.8472 32.2652L20.4028 28.3605C19.9632 27.8477 19.4529 27.5498 19.1206 27.3837C18.7581 27.2024 18.383 27.0687 18.0399 26.9658L16.3158 32.7128ZM16.0037 32.4342L16.2223 32.6528L20.4649 28.4101L20.2463 28.1915L16.0037 32.4342ZM15.9571 32.3493L24.2264 43.205L28.9994 39.5693L20.7301 28.7135L15.9571 32.3493ZM29.0065 43.1956C33.1388 37.7264 35.8747 34.1474 37.2343 32.43L32.53 28.7057C31.1211 30.4855 28.3441 34.1193 24.2193 39.5786L29.0065 43.1956ZM37.4209 32.1663C37.2958 32.3649 37.1502 32.5006 37.0342 32.5831C36.9251 32.6606 36.8588 32.6797 36.8797 32.6727C36.901 32.6655 36.9822 32.6415 37.1435 32.6203C37.3032 32.5994 37.5179 32.5843 37.7964 32.5843V26.5843C36.181 26.5843 33.6685 26.865 32.3435 28.9694L37.4209 32.1663ZM37.7964 32.5843C38.0833 32.5843 38.3006 32.5996 38.4585 32.6203C38.5361 32.6305 38.5938 32.6412 38.6338 32.6502C38.674 32.6592 38.6918 32.6654 38.6912 32.6651C38.6906 32.6649 38.6665 32.6566 38.6251 32.6353C38.5835 32.6138 38.5213 32.5776 38.4475 32.5213C38.2917 32.4022 38.1119 32.2136 37.9746 31.9488L43.3011 29.1869C42.6669 27.9637 41.5896 27.3191 40.6539 26.9952C39.7406 26.6791 38.7445 26.5843 37.7964 26.5843V32.5843ZM72.335 30.5679L69.6717 31.9488L69.6797 31.9643L69.6879 31.9796L72.335 30.5679ZM72.6629 31.5514L69.6732 31.8006L69.6834 31.9232L69.7037 32.0446L72.6629 31.5514ZM71.3514 55.995L72.2548 58.8557H72.2548L71.3514 55.995ZM67.9271 56.0314L67.0806 58.9095V58.9095L67.9271 56.0314ZM66.98 55.5943L68.8218 53.2262L66.98 55.5943ZM66.47 54.8657L63.5919 55.7122L63.6263 55.829L63.67 55.9426L66.47 54.8657ZM66.2879 40.7679H69.2879V32.2689L63.9526 38.8846L66.2879 40.7679ZM63.6286 44.3743L66.0673 46.1214L66.0734 46.1129L66.0795 46.1043L63.6286 44.3743ZM61.4064 47.4343L63.7895 49.2566L63.7895 49.2566L61.4064 47.4343ZM60.7507 48.3086L63.0554 50.2291L63.1269 50.1433L63.1919 50.0523L60.7507 48.3086ZM59.84 48.9643L61.3431 51.5606L61.3634 51.5488L61.3835 51.5368L59.84 48.9643ZM56.8164 49.0007L55.2521 51.5606L55.3341 51.6107L55.4192 51.6555L56.8164 49.0007ZM55.8693 48.2357L53.4431 50.0002L53.4836 50.056L53.5267 50.1098L55.8693 48.2357ZM55.5779 47.835L58.0041 46.0705L57.9635 46.0147L57.9205 45.9609L55.5779 47.835ZM52.7 43.9736L50.2648 45.7257L50.2699 45.7328L50.2751 45.7399L52.7 43.9736ZM50.3686 40.7679L52.6732 38.8473L47.3686 32.4817V40.7679H50.3686ZM50.2957 54.3193L47.3365 53.8261L47.3182 53.9364L47.308 54.0477L50.2957 54.3193ZM49.9679 55.23L47.3631 53.7416L47.3542 53.7573L47.3454 53.7731L49.9679 55.23ZM44.3579 55.23L46.9803 53.7731L46.9716 53.7573L46.9626 53.7416L44.3579 55.23ZM43.9936 54.2829L41.0039 54.532L41.0142 54.6546L41.0344 54.7761L43.9936 54.2829ZM43.9936 31.515L41.0344 31.0218L41.016 31.1321L41.0059 31.2434L43.9936 31.515ZM44.3579 30.5314L41.7593 29.0323L41.7343 29.0756L41.7108 29.1197L44.3579 30.5314ZM48.875 29.8393L47.8379 32.6543L47.9245 32.6862L48.013 32.7128L48.875 29.8393ZM49.8221 30.3129L47.5444 32.2652L47.6194 32.3527L47.7008 32.4342L49.8221 30.3129ZM50.0407 30.5314L52.4272 28.7135L52.3048 28.5529L52.162 28.4101L50.0407 30.5314ZM58.31 41.3871L55.9235 43.205L58.3197 46.3507L60.7036 43.1956L58.31 41.3871ZM66.5793 30.5679L68.9314 32.43L69.0318 32.3032L69.118 32.1663L66.5793 30.5679ZM69.6879 31.9796C69.7206 32.0409 69.7243 32.0586 69.7166 32.0356C69.709 32.0127 69.6841 31.9313 69.6732 31.8006L75.6525 31.3023C75.5834 30.473 75.295 29.7429 74.9821 29.1561L69.6879 31.9796ZM69.7037 32.0446C69.7034 32.0427 69.7061 32.0593 69.7101 32.0986C69.714 32.137 69.7184 32.1901 69.7224 32.2599C69.7305 32.401 69.7357 32.5878 69.7357 32.8264H75.7357C75.7357 32.2207 75.712 31.598 75.622 31.0582L69.7037 32.0446ZM69.7357 32.8264V53.0443H75.7357V32.8264H69.7357ZM69.7357 53.0443C69.7357 53.3306 69.7156 53.5301 69.6934 53.6584C69.6708 53.7883 69.652 53.8107 69.6737 53.7646C69.6983 53.7121 69.7708 53.5817 69.9246 53.44C70.0847 53.2925 70.2713 53.1901 70.448 53.1343L72.2548 58.8557C75.2158 57.9207 75.7357 54.947 75.7357 53.0443H69.7357ZM70.448 53.1343C70.3789 53.1561 70.1271 53.2136 69.6029 53.2136V59.2136C70.4872 59.2136 71.4011 59.1254 72.2548 58.8557L70.448 53.1343ZM69.6029 53.2136C69.3332 53.2136 69.1286 53.2018 68.9799 53.1856C68.8272 53.169 68.7669 53.1514 68.7736 53.1533L67.0806 58.9095C67.8869 59.1466 68.7694 59.2136 69.6029 59.2136V53.2136ZM68.7736 53.1533C68.7265 53.1395 68.692 53.1278 68.6685 53.1192C68.6449 53.1105 68.6355 53.1061 68.6379 53.1072C68.6402 53.1082 68.6582 53.1167 68.6883 53.1345C68.7183 53.1522 68.7648 53.1819 68.8218 53.2262L65.1382 57.9623C65.7715 58.4549 66.485 58.7343 67.0806 58.9095L68.7736 53.1533ZM68.8218 53.2262C69.1205 53.4586 69.2389 53.7078 69.27 53.7888L63.67 55.9426C63.944 56.6551 64.4023 57.39 65.1382 57.9623L68.8218 53.2262ZM69.3481 54.0192C69.3598 54.0591 69.3395 54.0017 69.3196 53.7954C69.3009 53.6008 69.2879 53.3305 69.2879 52.9714H63.2879C63.2879 53.8862 63.3447 54.8716 63.5919 55.7122L69.3481 54.0192ZM69.2879 52.9714V40.7679H63.2879V52.9714H69.2879ZM63.9526 38.8846C63.2819 39.7162 62.3496 40.9839 61.1777 42.6442L66.0795 46.1043C67.2389 44.4618 68.0795 43.3252 68.6231 42.6511L63.9526 38.8846ZM61.1898 42.6271C60.0147 44.2675 59.3044 45.2444 59.0234 45.6119L63.7895 49.2566C64.1399 48.7984 64.9111 47.7354 66.0673 46.1214L61.1898 42.6271ZM59.0234 45.6119C58.7083 46.0239 58.4626 46.3505 58.3095 46.5649L63.1919 50.0523C63.2817 49.9266 63.4731 49.6704 63.7895 49.2566L59.0234 45.6119ZM58.4461 46.388C58.5075 46.3143 58.5602 46.26 58.5949 46.2259C58.6305 46.191 58.6579 46.1668 58.6731 46.1537C58.7014 46.1295 58.7075 46.1267 58.6791 46.1472C58.6528 46.1661 58.6085 46.1966 58.542 46.2396C58.4762 46.2821 58.395 46.3327 58.2965 46.3918L61.3835 51.5368C61.6657 51.3675 61.9403 51.1925 62.1849 51.0164C62.3839 50.8731 62.7437 50.6031 63.0554 50.2291L58.4461 46.388ZM58.3369 46.368C58.3355 46.3688 58.3369 46.3679 58.3408 46.3663C58.3447 46.3647 58.3486 46.3634 58.3513 46.3627C58.3541 46.362 58.3532 46.3624 58.3477 46.3631C58.3421 46.3638 58.3299 46.365 58.31 46.365V52.365C59.3702 52.365 60.4028 52.105 61.3431 51.5606L58.3369 46.368ZM58.31 46.365C58.2501 46.365 58.2334 46.3563 58.2137 46.346L55.4192 51.6555C56.3223 52.1308 57.3013 52.365 58.31 52.365V46.365ZM58.3808 46.4409C58.2464 46.3588 58.1705 46.3025 58.1368 46.2753C58.1211 46.2626 58.1214 46.2618 58.1334 46.2734C58.1451 46.2848 58.1737 46.3139 58.2119 46.3616L53.5267 50.1098C54.0341 50.7441 54.6844 51.2136 55.2521 51.5606L58.3808 46.4409ZM58.2955 46.4712L58.0041 46.0705L53.1516 49.5995L53.4431 50.0002L58.2955 46.4712ZM57.9205 45.9609C57.4846 45.4161 56.5657 44.1853 55.1249 42.2073L50.2751 45.7399C51.7 47.6961 52.6997 49.0396 53.2353 49.7091L57.9205 45.9609ZM55.1352 42.2214C53.7624 40.3135 52.8847 39.1011 52.6732 38.8473L48.0639 42.6884C48.0428 42.6631 48.1866 42.8523 48.6163 43.4431C49.0003 43.9712 49.5493 44.7313 50.2648 45.7257L55.1352 42.2214ZM47.3686 40.7679V53.0443H53.3686V40.7679H47.3686ZM47.3686 53.0443C47.3686 53.283 47.3633 53.4697 47.3552 53.6108C47.3513 53.6806 47.3469 53.7337 47.343 53.7722C47.339 53.8114 47.3362 53.828 47.3365 53.8261L53.2549 54.8125C53.3449 54.2727 53.3686 53.65 53.3686 53.0443H47.3686ZM47.308 54.0477C47.3231 53.8819 47.3579 53.7727 47.3729 53.7312C47.3879 53.6893 47.3916 53.6917 47.3631 53.7416L52.5726 56.7184C52.89 56.1629 53.2065 55.4366 53.2834 54.5909L47.308 54.0477ZM47.3454 53.7731C47.4775 53.5353 47.6435 53.3667 47.7854 53.2603C47.9184 53.1606 48.0089 53.1306 48.003 53.1327C47.9968 53.1349 47.9273 53.1574 47.771 53.178C47.617 53.1984 47.4053 53.2136 47.1264 53.2136V59.2136C48.0686 59.2136 49.0561 59.1175 49.9656 58.8026C50.8989 58.4796 51.9434 57.8514 52.5903 56.6869L47.3454 53.7731ZM47.1264 53.2136C46.8632 53.2136 46.6661 53.1988 46.5254 53.1796C46.3828 53.1602 46.3246 53.1397 46.3275 53.1408C46.3312 53.1421 46.425 53.1755 46.5573 53.2766C46.6978 53.384 46.8554 53.5482 46.9803 53.7731L41.7354 56.6869C42.3692 57.8277 43.3842 58.4625 44.3189 58.7946C45.2235 59.1159 46.2007 59.2136 47.1264 59.2136V53.2136ZM46.9626 53.7416C46.9294 53.6835 46.9195 53.6572 46.9211 53.6613C46.9228 53.6656 46.9394 53.7097 46.9528 53.7897L41.0344 54.7761C41.1569 55.5109 41.4367 56.1647 41.7531 56.7184L46.9626 53.7416ZM46.9832 54.0337C46.9697 53.8711 46.9571 53.5355 46.9571 52.9714H40.9571C40.9571 53.573 40.9689 54.1118 41.0039 54.532L46.9832 54.0337ZM46.9571 52.9714V32.7536H40.9571V52.9714H46.9571ZM46.9571 32.7536C46.9571 32.2107 46.9699 31.9111 46.9813 31.7866L41.0059 31.2434C40.9686 31.6532 40.9571 32.1793 40.9571 32.7536H46.9571ZM46.9528 32.0082C46.9408 32.0799 46.9279 32.1099 46.9343 32.0925C46.9405 32.0757 46.9604 32.0266 47.0049 31.9432L41.7108 29.1197C41.4194 29.666 41.1531 30.3097 41.0344 31.0218L46.9528 32.0082ZM46.9564 32.0306C46.8137 32.2781 46.6385 32.4468 46.4968 32.5491C46.3642 32.6449 46.2772 32.6714 46.2901 32.6671C46.3026 32.663 46.3785 32.64 46.5404 32.6194C46.6999 32.5991 46.9165 32.5843 47.1993 32.5843V26.5843C46.2646 26.5843 45.2895 26.6761 44.3927 26.975C43.4816 27.2787 42.4247 27.8789 41.7593 29.0323L46.9564 32.0306ZM47.1993 32.5843C47.612 32.5843 47.7987 32.6399 47.8379 32.6543L49.9121 27.0243C49.0284 26.6987 48.098 26.5843 47.1993 26.5843V32.5843ZM48.013 32.7128C48.1556 32.7556 48.1812 32.7736 48.1344 32.7502C48.1076 32.7368 48.0376 32.7001 47.9434 32.6332C47.8513 32.5678 47.7026 32.4498 47.5444 32.2652L52.0999 28.3605C51.6604 27.8477 51.15 27.5498 50.8177 27.3837C50.4552 27.2024 50.0801 27.0687 49.737 26.9658L48.013 32.7128ZM47.7008 32.4342L47.9194 32.6528L52.162 28.4101L51.9435 28.1915L47.7008 32.4342ZM47.6542 32.3493L55.9235 43.205L60.6965 39.5693L52.4272 28.7135L47.6542 32.3493ZM60.7036 43.1956C64.8359 37.7264 67.5718 34.1474 68.9314 32.43L64.2271 28.7057C62.8182 30.4855 60.0412 34.1193 55.9164 39.5786L60.7036 43.1956ZM69.118 32.1663C68.9929 32.3649 68.8473 32.5006 68.7313 32.5831C68.6222 32.6606 68.5559 32.6797 68.5768 32.6727C68.5981 32.6655 68.6793 32.6415 68.8407 32.6203C69.0003 32.5994 69.2151 32.5843 69.4936 32.5843V26.5843C67.8781 26.5843 65.3656 26.865 64.0406 28.9694L69.118 32.1663ZM69.4936 32.5843C69.7804 32.5843 69.9977 32.5996 70.1556 32.6203C70.2333 32.6305 70.2909 32.6412 70.3309 32.6502C70.3711 32.6592 70.3889 32.6654 70.3883 32.6651C70.3877 32.6649 70.3636 32.6566 70.3223 32.6353C70.2806 32.6138 70.2184 32.5776 70.1446 32.5213C69.9889 32.4022 69.8091 32.2136 69.6717 31.9488L74.9983 29.1869C74.364 27.9637 73.2867 27.3191 72.351 26.9952C71.4377 26.6791 70.4417 26.5843 69.4936 26.5843V32.5843Z" fill="#E5CBE6"/>
</svg>
