<svg width="123" height="123" viewBox="0 0 123 123" fill="none" xmlns="http://www.w3.org/2000/svg">
<circle cx="61.5" cy="61.5" r="61.5" fill="#F9D462"/>
<path d="M58.8054 44.5864C59.0865 45.1136 59.2447 45.588 59.2798 46.0097C59.3501 46.4314 59.3853 47.0464 59.3853 47.8547V77.1111C59.3853 79.536 58.7175 80.9593 57.3821 81.381C56.7144 81.5919 55.871 81.6973 54.8518 81.6973C53.8327 81.6973 53.0244 81.6094 52.427 81.4337C51.8295 81.258 51.3727 81.0471 51.0564 80.8011C50.7401 80.5551 50.4941 80.2037 50.3184 79.7469C50.1427 79.1494 50.0548 78.2357 50.0548 77.0057V59.3464C49.1763 60.4359 47.8935 62.1754 46.2067 64.5651C44.5198 66.9197 43.448 68.3957 42.9911 68.9931C42.5343 69.5906 42.218 70.0123 42.0423 70.2583C41.8665 70.4691 41.4273 70.7854 40.7244 71.2071C40.0567 71.5937 39.3187 71.787 38.5104 71.787C37.7373 71.787 37.0168 71.6113 36.3491 71.2599C35.7165 70.8733 35.2597 70.5043 34.9785 70.1529L34.5568 69.573C33.854 68.6944 32.4658 66.8319 30.3924 63.9853C28.319 61.1036 27.1944 59.5573 27.0187 59.3464V77.1111C27.0187 77.9194 26.9835 78.5344 26.9133 78.9561C26.8781 79.3427 26.72 79.782 26.4388 80.274C25.9117 81.2229 24.5411 81.6973 22.3271 81.6973C20.1834 81.6973 18.848 81.2229 18.3208 80.274C18.0397 79.782 17.864 79.3251 17.7937 78.9034C17.7585 78.4817 17.741 77.8491 17.741 77.0057V47.7493C17.741 46.941 17.7585 46.3436 17.7937 45.957C17.864 45.5353 18.0397 45.0609 18.3208 44.5337C18.848 43.62 20.2185 43.1631 22.4325 43.1631C23.3814 43.1631 24.1897 43.2861 24.8574 43.5321C25.5603 43.743 26.0171 43.9714 26.228 44.2174L26.5443 44.5337L38.5104 60.2426C44.4847 52.3354 48.4734 47.1167 50.4765 44.5864C51.074 43.6376 52.4797 43.1631 54.6937 43.1631C56.9428 43.1631 58.3134 43.6376 58.8054 44.5864ZM104.673 44.5864C104.954 45.1136 105.112 45.588 105.147 46.0097C105.218 46.4314 105.253 47.0464 105.253 47.8547V77.1111C105.253 79.536 104.585 80.9593 103.25 81.381C102.582 81.5919 101.739 81.6973 100.719 81.6973C99.7003 81.6973 98.892 81.6094 98.2946 81.4337C97.6971 81.258 97.2403 81.0471 96.924 80.8011C96.6077 80.5551 96.3617 80.2037 96.186 79.7469C96.0103 79.1494 95.9224 78.2357 95.9224 77.0057V59.3464C95.0439 60.4359 93.7611 62.1754 92.0743 64.5651C90.3874 66.9197 89.3156 68.3957 88.8587 68.9931C88.4019 69.5906 88.0856 70.0123 87.9099 70.2583C87.7341 70.4691 87.2949 70.7854 86.592 71.2071C85.9243 71.5937 85.1863 71.787 84.378 71.787C83.6049 71.787 82.8844 71.6113 82.2167 71.2599C81.5841 70.8733 81.1273 70.5043 80.8461 70.1529L80.4244 69.573C79.7216 68.6944 78.3334 66.8319 76.26 63.9853C74.1866 61.1036 73.062 59.5573 72.8863 59.3464V77.1111C72.8863 77.9194 72.8511 78.5344 72.7809 78.9561C72.7457 79.3427 72.5876 79.782 72.3064 80.274C71.7793 81.2229 70.4087 81.6973 68.1947 81.6973C66.051 81.6973 64.7156 81.2229 64.1884 80.274C63.9073 79.782 63.7316 79.3251 63.6613 78.9034C63.6261 78.4817 63.6086 77.8491 63.6086 77.0057V47.7493C63.6086 46.941 63.6261 46.3436 63.6613 45.957C63.7316 45.5353 63.9073 45.0609 64.1884 44.5337C64.7156 43.62 66.0861 43.1631 68.3001 43.1631C69.249 43.1631 70.0573 43.2861 70.725 43.5321C71.4279 43.743 71.8847 43.9714 72.0956 44.2174L72.4119 44.5337L84.378 60.2426C90.3523 52.3354 94.341 47.1167 96.3441 44.5864C96.9416 43.6376 98.3473 43.1631 100.561 43.1631C102.81 43.1631 104.181 43.6376 104.673 44.5864Z" fill="#0F123B"/>
</svg>
